# xmcd
#
# Track frame offsets:
#	150
#	26682
#	45836
#	68931
#	93473
#	114993
#	137120
#	157800
#	189815
#	211892
#	226393
#	249172
#	271341
#	296807
#	315734
#	340409
#
# Disc length: 4727 seconds
#
# Revision: 0
# Processed by: cddbd v1.4PL0 Copyright (c) Steve Scherf et al.
# Submitted via: audiograbber 1.80
#
DISCID=da127510
DTITLE=Spanish Guitar - Magic
DYEAR=1900
DGENRE=
TTITLE0=Acoustic Alchemy - Cadaques
TTITLE1=Serge Lopes - Carmino
TTITLE2=Al Di Miola - Mediterranean Sundance
TTITLE3=Lara and Reyes - Los Flamingos
TTITLE4=Armik - Andalucia La Luna
TTITLE5=Steve Erquiaga - Under The Tuskan Sun
TTITLE6=Johannes Linstead - Road To Marrakesh
TTITLE7=Al Di Meola and John McLaughlin and Paco De Lucia - Orient Blue Suite
TTITLE8=Lara and Reyes - Baghdad
TTITLE9=Serge Lopez - Solear
TTITLE10=Armik - Ritmos Flamenco
TTITLE11=Marñ Antoine Universal Language
TTITLE12=Johannes Linstead and Luna Negra - Almoraima
TTITLE13=Steve Erquiaga - Shining Morning
TTITLE14=Paco De Lucia - Almoraima
TTITLE15=Willie and Lobo - Refrus
EXTD=
EXTT0=
EXTT1=
EXTT2=
EXTT3=
EXTT4=
EXTT5=
EXTT6=
EXTT7=
EXTT8=
EXTT9=
EXTT10=
EXTT11=
EXTT12=
EXTT13=
EXTT14=
EXTT15=
PLAYORDER=
